<svg width="120" height="20" viewBox="0 0 120 20" fill="none" xmlns="http://www.w3.org/2000/svg">
<path d="M7.55469 8.58203C9.26823 9.58464 10.5169 10.5052 11.3008 11.3438C12.0938 12.1732 12.4902 13.153 12.4902 14.2832C12.4902 15.7871 11.9023 16.9993 10.7266 17.9199C9.5599 18.8405 7.99674 19.3008 6.03711 19.3008C4.94336 19.3008 3.94076 19.2142 3.0293 19.041C2.12695 18.877 1.4069 18.6764 0.869141 18.4395L0.582031 14.8984L2.18164 14.5566L3.30273 17.209C3.63997 17.3092 4.01367 17.3913 4.42383 17.4551C4.8431 17.5098 5.3125 17.5371 5.83203 17.5371C6.50651 17.5371 7.14909 17.4915 7.75977 17.4004C8.37956 17.3092 8.95378 17.1816 9.48242 17.0176C9.57357 16.7897 9.66471 16.4889 9.75586 16.1152C9.84701 15.7324 9.89258 15.2812 9.89258 14.7617C9.89258 14.1875 9.6237 13.5905 9.08594 12.9707C8.54818 12.3418 7.38607 11.4896 5.59961 10.4141C3.28451 9.04688 1.86719 7.98958 1.34766 7.24219C0.83724 6.49479 0.582031 5.67904 0.582031 4.79492C0.582031 3.46419 1.15169 2.36589 2.29102 1.5C3.43945 0.634115 5.02083 0.201172 7.03516 0.201172C7.80078 0.201172 8.56641 0.255859 9.33203 0.365234C10.1068 0.474609 10.8542 0.656901 11.5742 0.912109L11.8613 4.60352L10.4258 4.9043L9.30469 2.26562C8.93099 2.16536 8.54818 2.09245 8.15625 2.04688C7.77344 1.99219 7.3724 1.96484 6.95312 1.96484C6.2513 1.96484 5.59505 2.01497 4.98438 2.11523C4.3737 2.21549 3.85872 2.33854 3.43945 2.48438C3.35742 2.75781 3.29362 3.04948 3.24805 3.35938C3.20247 3.66016 3.17969 3.97917 3.17969 4.31641C3.17969 4.96354 3.44857 5.56055 3.98633 6.10742C4.5332 6.64518 5.72266 7.47005 7.55469 8.58203ZM20.1602 2.26562H16.0586L15.2109 4.58984L13.8574 4.4668L14.0625 0.501953H28.8555L29.0469 4.4668L27.707 4.58984L26.8457 2.26562H22.7578V17.1953L24.8496 17.6602L24.5762 19H18.3418L18.0684 17.6602L20.1602 17.1953V2.26562ZM34.9941 11.5352C34.9941 13.5677 35.4225 15.0762 36.2793 16.0605C37.1361 17.0449 38.3164 17.5371 39.8203 17.5371C40.5404 17.5371 41.2148 17.4323 41.8438 17.2227C42.4727 17.013 42.974 16.7715 43.3477 16.498C43.6576 15.9329 43.9128 15.2493 44.1133 14.4473C44.3138 13.6452 44.4141 12.7884 44.4141 11.877V2.30664L42.3223 1.8418L42.5957 0.501953H48.1465L48.4199 1.8418L46.3418 2.30664V11.5625C46.3418 14.2148 45.763 16.1699 44.6055 17.4277C43.4479 18.6764 41.6706 19.3008 39.2734 19.3008C37.0039 19.3008 35.2904 18.7357 34.1328 17.6055C32.9753 16.4661 32.3965 14.6934 32.3965 12.2871V2.30664L30.291 1.8418L30.5645 0.501953H36.7988L37.0723 1.8418L34.9941 2.30664V11.5352ZM51.7969 2.30664L49.7051 1.8418L49.9785 0.501953H57.3613C60.1139 0.501953 62.1875 1.19466 63.582 2.58008C64.9766 3.95638 65.6738 5.94336 65.6738 8.54102V9.60742C65.6738 12.5059 64.9674 14.7982 63.5547 16.4844C62.1419 18.1615 60.1823 19 57.6758 19H49.9785L49.7051 17.6602L51.7969 17.1953V2.30664ZM54.3945 2.26562V17.2363H57.2793C57.9902 17.2363 58.6647 17.1816 59.3027 17.0723C59.9408 16.9538 60.5332 16.7852 61.0801 16.5664C61.6452 15.8646 62.1191 14.9759 62.502 13.9004C62.8848 12.8249 63.0762 11.6901 63.0762 10.4961V9.21094C63.0762 7.01432 62.5475 5.3099 61.4902 4.09766C60.4421 2.8763 58.888 2.26562 56.8281 2.26562H54.3945ZM70.3359 2.30664L68.2441 1.8418L68.5176 0.501953H74.7383L75.0117 1.8418L72.9336 2.30664V17.1953L75.0117 17.6602L74.7383 19H68.5176L68.2441 17.6602L70.3359 17.1953V2.30664ZM80.9863 11.5352C80.9863 13.5677 81.4147 15.0762 82.2715 16.0605C83.1283 17.0449 84.3086 17.5371 85.8125 17.5371C86.5326 17.5371 87.207 17.4323 87.8359 17.2227C88.4648 17.013 88.9661 16.7715 89.3398 16.498C89.6497 15.9329 89.9049 15.2493 90.1055 14.4473C90.306 13.6452 90.4062 12.7884 90.4062 11.877V2.30664L88.3145 1.8418L88.5879 0.501953H94.1387L94.4121 1.8418L92.334 2.30664V11.5625C92.334 14.2148 91.7552 16.1699 90.5977 17.4277C89.4401 18.6764 87.6628 19.3008 85.2656 19.3008C82.9961 19.3008 81.2826 18.7357 80.125 17.6055C78.9674 16.4661 78.3887 14.6934 78.3887 12.2871V2.30664L76.2832 1.8418L76.5566 0.501953H82.791L83.0645 1.8418L80.9863 2.30664V11.5352ZM97.707 2.30664L95.6152 1.8418L95.8887 0.501953H101.727L107.688 14.748H107.906L113.621 0.501953H119.596L119.869 1.8418L117.791 2.30664V17.1953L119.869 17.6602L119.596 19H113.375L113.102 17.6602L115.193 17.1953V2.45703H114.975L108.248 19H106.812L99.8398 2.45703H99.6211V17.1953L101.699 17.6602L101.426 19H95.8887L95.6152 17.6602L97.707 17.1953V2.30664Z" fill="black"/>
</svg>
