<svg width="40" height="38" viewBox="0 0 40 38" fill="none" xmlns="http://www.w3.org/2000/svg">
<path d="M1 36V8C1 7.44772 1.46294 7 2.03401 7H30.9864C31.5575 7 32.0204 7.44772 32.0204 8V36C32.0204 36.5523 31.5575 37 30.9864 37H2.03401C1.46294 37 1 36.5523 1 36Z" fill="white"/>
<path fill-rule="evenodd" clip-rule="evenodd" d="M2 8.01V35.99C2.00241 35.9919 2.00578 35.9941 2.01011 35.9959C2.0152 35.9979 2.02274 36 2.03401 36H30.9864C30.9977 36 31.0052 35.9979 31.0103 35.9958C31.0146 35.9941 31.018 35.992 31.0204 35.99V8.00999C31.018 8.00805 31.0146 8.00592 31.0103 8.00415C31.0052 8.00207 30.9977 8 30.9864 8H2.03401C2.02275 8 2.01522 8.00206 2.01013 8.00414C2.00579 8.00592 2.00242 8.00806 2 8.01ZM0 8C0 6.86417 0.942451 6 2.03401 6H30.9864C32.078 6 33.0204 6.8642 33.0204 8V36C33.0204 37.1359 32.078 38 30.9864 38H2.03401C0.942483 38 0 37.1359 0 36V8Z" fill="#5796A8"/>
<path d="M27.0573 5.20001L31.4001 1L39 8.35002L34.6572 12.55M27.0573 5.20001L12.3069 19.4651C12.019 19.7435 11.8572 20.1213 11.8572 20.5151V27.25H18.8212C19.2284 27.25 19.619 27.0936 19.9069 26.8151L34.6572 12.55M27.0573 5.20001L34.6572 12.55L27.0573 5.20001Z" fill="white"/>
<path fill-rule="evenodd" clip-rule="evenodd" d="M30.7049 0.281173C31.0926 -0.0937242 31.7076 -0.0937243 32.0953 0.281173L39.6952 7.63119C39.89 7.81959 40 8.079 40 8.35002C40 8.62103 39.89 8.88044 39.6952 9.06885L20.6022 27.5338C20.6022 27.5338 20.6022 27.5337 20.6022 27.5338C20.1242 27.9961 19.4829 28.25 18.8212 28.25H11.8572C11.3049 28.25 10.8572 27.8023 10.8572 27.25V20.5151C10.8572 19.8451 11.1327 19.2095 11.6118 18.7462L26.3621 4.48118L30.7049 0.281173ZM27.0573 6.59116L13.0021 20.184C12.9053 20.2776 12.8572 20.3975 12.8572 20.5151V26.25H18.8212C18.9739 26.25 19.1137 26.1911 19.2116 26.0963L33.2187 12.55L27.0573 6.59116ZM34.6572 11.1588L37.5616 8.35001L31.4001 2.39115L28.4957 5.20001L34.6572 11.1588Z" fill="#5796A8"/>
</svg>
